<svg width="334" height="28" viewBox="0 0 334 28" fill="none" xmlns="http://www.w3.org/2000/svg">
<g clip-path="url(#clip0_8567_3356)">
<mask id="mask0_8567_3356" style="mask-type:luminance" maskUnits="userSpaceOnUse" x="0" y="0" width="36" height="28">
<path d="M35.0306 0H0V28H35.0306V0Z" fill="white"/>
</mask>
<g mask="url(#mask0_8567_3356)">
<path d="M0 5.95V22.05C0 25.3361 2.66624 28 5.95521 28H29.0754C32.3644 28 35.0306 25.3361 35.0306 22.05V5.95C35.0306 2.66391 32.3644 0 29.0754 0H5.95521C2.66624 0 0 2.66391 0 5.95Z" fill="#111111"/>
<path d="M0 5.95V22.05C0 25.3361 2.66624 28 5.95521 28H29.0754C32.3644 28 35.0306 25.3361 35.0306 22.05V5.95C35.0306 2.66391 32.3644 0 29.0754 0H5.95521C2.66624 0 0 2.66391 0 5.95Z" fill="url(#paint0_linear_8567_3356)"/>
<path d="M8.75743 7C8.75743 6.0335 7.97324 5.25 7.0059 5.25C6.03855 5.25 5.25436 6.0335 5.25436 7C5.25436 7.9665 6.03855 8.75 7.0059 8.75C7.97324 8.75 8.75743 7.9665 8.75743 7Z" fill="url(#paint1_linear_8567_3356)"/>
<path d="M8.75743 7C8.75743 6.0335 7.97324 5.25 7.0059 5.25C6.03855 5.25 5.25436 6.0335 5.25436 7C5.25436 7.9665 6.03855 8.75 7.0059 8.75C7.97324 8.75 8.75743 7.9665 8.75743 7Z" fill="url(#paint2_linear_8567_3356)"/>
<path d="M8.75743 7C8.75743 6.0335 7.97324 5.25 7.0059 5.25C6.03855 5.25 5.25436 6.0335 5.25436 7C5.25436 7.9665 6.03855 8.75 7.0059 8.75C7.97324 8.75 8.75743 7.9665 8.75743 7Z" fill="url(#paint3_linear_8567_3356)"/>
<path d="M8.75743 20.9882C8.75743 20.0218 7.97324 19.2383 7.0059 19.2383C6.03855 19.2383 5.25436 20.0218 5.25436 20.9882C5.25436 21.9548 6.03855 22.7383 7.0059 22.7383C7.97324 22.7383 8.75743 21.9548 8.75743 20.9882Z" fill="url(#paint4_linear_8567_3356)"/>
<path d="M29.776 14C29.776 13.0335 28.9917 12.25 28.0244 12.25C27.0571 12.25 26.2729 13.0335 26.2729 14C26.2729 14.9664 27.0571 15.75 28.0244 15.75C28.9917 15.75 29.776 14.9664 29.776 14Z" fill="url(#paint5_linear_8567_3356)"/>
<path d="M29.776 14C29.776 13.0335 28.9917 12.25 28.0244 12.25C27.0571 12.25 26.2729 13.0335 26.2729 14C26.2729 14.9664 27.0571 15.75 28.0244 15.75C28.9917 15.75 29.776 14.9664 29.776 14Z" fill="url(#paint6_linear_8567_3356)"/>
<path d="M28.0243 5.25H14.0121C13.0447 5.25 12.2605 6.0335 12.2605 7C12.2605 7.9665 13.0447 8.75 14.0121 8.75H28.0243C28.9916 8.75 29.7758 7.9665 29.7758 7C29.7758 6.0335 28.9916 5.25 28.0243 5.25Z" fill="url(#paint7_linear_8567_3356)"/>
<path d="M28.0243 19.2383H14.0121C13.0447 19.2383 12.2605 20.0218 12.2605 20.9882C12.2605 21.9548 13.0447 22.7383 14.0121 22.7383H28.0243C28.9916 22.7383 29.7758 21.9548 29.7758 20.9882C29.7758 20.0218 28.9916 19.2383 28.0243 19.2383Z" fill="url(#paint8_linear_8567_3356)"/>
<path d="M21.0181 12.25H7.00589C6.03855 12.25 5.25436 13.0335 5.25436 14C5.25436 14.9664 6.03855 15.75 7.00589 15.75H21.0181C21.9855 15.75 22.7697 14.9664 22.7697 14C22.7697 13.0335 21.9855 12.25 21.0181 12.25Z" fill="url(#paint9_linear_8567_3356)"/>
</g>
<path d="M49.65 23.2806C53.0633 23.2806 55.4691 21.3403 55.4691 18.37C55.4932 15.8075 53.9473 14.3218 51.3687 13.3879L49.6008 12.7411C47.8088 12.0944 46.949 11.5436 46.949 10.2982C46.949 9.05263 48.2256 8.33435 49.6993 8.33435C51.0744 8.33435 52.1301 8.88507 53.0141 9.91504L55.003 8.0227C53.7263 6.51356 51.8851 5.69922 49.7244 5.69922C46.4829 5.69922 44.0531 7.52001 44.0531 10.4903C44.0531 12.8138 45.4031 14.2983 48.1775 15.2813L50.0931 15.9516C51.7626 16.5504 52.5732 17.3167 52.5732 18.5387C52.5732 19.8076 51.395 20.6466 49.7495 20.6466C48.055 20.6466 46.6065 19.8322 45.6985 18.4672L43.4393 20.2154C44.4688 22.0586 46.8505 23.2806 49.65 23.2806ZM63.2879 23.2326C65.8666 23.2326 67.781 22.1781 68.886 20.4544L66.8238 19.0168C66.1608 20.0713 65.0559 20.8376 63.3131 20.8376C61.2509 20.8376 59.6547 19.5686 59.5322 17.5802H69.1814C69.2054 17.197 69.2054 16.9815 69.2054 16.7179C69.2054 12.8618 66.5295 10.7773 63.2879 10.7773C59.5563 10.7773 56.8793 13.484 56.8793 17.005C56.8793 20.669 59.5552 23.2326 63.2879 23.2326ZM59.6537 15.6634C60.0464 13.8907 61.5933 13.0048 63.1895 13.0048C64.7604 13.0048 66.1848 13.9386 66.4791 15.6634H59.6537ZM83.2361 27.9991V11.0165H80.535V12.6216C79.8479 11.6632 78.3743 10.7773 76.6064 10.7773C73.2423 10.7773 70.6889 13.5801 70.6889 17.005C70.6889 20.4299 73.2423 23.2326 76.6064 23.2326C78.3743 23.2326 79.8479 22.3467 80.535 21.3883V27.9991H83.2361ZM77.0976 20.8365C74.9369 20.8365 73.4393 19.1598 73.4393 17.0039C73.4393 14.848 74.9369 13.1713 77.0976 13.1713C79.2582 13.1713 80.756 14.848 80.756 17.0039C80.756 19.1598 79.2582 20.8365 77.0976 20.8365ZM90.2247 23.2326C91.7958 23.2326 93.097 22.5858 93.81 21.3638V22.9925H96.5107V11.0165H93.81V16.9089C93.81 19.496 92.5822 20.8376 90.8138 20.8376C89.2437 20.8376 88.3593 19.6636 88.3593 17.7478V11.0165H85.6582V18.1789C85.6582 21.2443 87.4009 23.2326 90.2247 23.2326ZM104.958 23.2326C107.537 23.2326 109.451 22.1781 110.556 20.4544L108.494 19.0168C107.83 20.0713 106.725 20.8376 104.983 20.8376C102.921 20.8376 101.325 19.5686 101.202 17.5802H110.851C110.875 17.197 110.875 16.9815 110.875 16.7179C110.875 12.8618 108.199 10.7773 104.958 10.7773C101.226 10.7773 98.5489 13.484 98.5489 17.005C98.5489 20.669 101.225 23.2326 104.958 23.2326ZM101.323 15.6634C101.716 13.8907 103.263 13.0048 104.859 13.0048C106.43 13.0048 107.854 13.9386 108.149 15.6634H101.323ZM112.914 22.9925H115.616V17.1C115.616 14.5129 116.99 13.1713 118.783 13.1713C120.354 13.1713 121.336 14.2973 121.336 16.213V22.9914H124.037V15.7818C124.037 12.7401 122.195 10.7752 119.347 10.7752C117.751 10.7752 116.376 11.422 115.616 12.6441V11.0165H112.914V22.9925ZM132.353 23.2326C134.907 23.2326 137.019 21.9391 138.074 19.9272L135.717 18.6817C135.127 19.9037 133.925 20.7895 132.353 20.7895C130.168 20.7895 128.621 19.1363 128.621 17.005C128.621 14.8736 130.168 13.2204 132.353 13.2204C133.924 13.2204 135.127 14.1063 135.717 15.3283L138.074 14.0827C137.019 12.0709 134.907 10.7773 132.353 10.7773C128.672 10.7773 125.872 13.4605 125.872 17.005C125.872 20.5494 128.672 23.2326 132.353 23.2326ZM145.356 23.2326C147.935 23.2326 149.849 22.1781 150.954 20.4544L148.892 19.0168C148.229 20.0713 147.124 20.8376 145.381 20.8376C143.318 20.8376 141.723 19.5686 141.599 17.5802H151.25C151.274 17.197 151.274 16.9815 151.274 16.7179C151.274 12.8618 148.598 10.7773 145.356 10.7773C141.623 10.7773 138.947 13.484 138.947 17.005C138.947 20.669 141.623 23.2326 145.356 23.2326ZM141.721 15.6634C142.114 13.8907 143.661 13.0048 145.257 13.0048C146.828 13.0048 148.253 13.9386 148.547 15.6634H141.721Z" fill="white"/>
</g>
<path d="M172.749 22.5L168.772 12.0384L164.794 22.5H162.191L157.78 5.38544H160.745L163.854 17.8236L168.772 5.09618L173.665 17.8236L176.799 5.38544H179.788L175.352 22.5H172.749ZM185.45 22.7411C183.811 22.7411 182.429 22.1304 181.304 20.9091C180.195 19.6877 179.641 18.2093 179.641 16.4737C179.641 14.7382 180.195 13.2597 181.304 12.0384C182.429 10.8171 183.811 10.2064 185.45 10.2064C186.27 10.2064 187.025 10.3912 187.716 10.7609C188.407 11.1144 188.938 11.5483 189.307 12.0625V10.4475H191.959V22.5H189.307V20.885C188.938 21.3992 188.407 21.8411 187.716 22.2107C187.025 22.5643 186.27 22.7411 185.45 22.7411ZM183.353 19.2217C184.028 19.9609 184.888 20.3305 185.932 20.3305C186.977 20.3305 187.837 19.9609 188.512 19.2217C189.187 18.4825 189.524 17.5665 189.524 16.4737C189.524 15.381 189.187 14.465 188.512 13.7258C187.837 12.9866 186.977 12.6169 185.932 12.6169C184.888 12.6169 184.028 12.9866 183.353 13.7258C182.678 14.465 182.341 15.381 182.341 16.4737C182.341 17.5665 182.678 18.4825 183.353 19.2217ZM194.828 22.5V4.42124H197.479V22.5H194.828ZM200.319 22.5V4.42124H202.971V22.5H200.319ZM211.258 22.7411C209.426 22.7411 207.916 22.1545 206.727 20.9814C205.554 19.8083 204.967 18.3057 204.967 16.4737C204.967 14.69 205.562 13.2035 206.751 12.0143C207.94 10.8091 209.442 10.2064 211.258 10.2064C212.93 10.2064 214.312 10.7368 215.404 11.7974C216.513 12.858 217.068 14.3204 217.068 16.1845C217.068 16.5059 217.06 16.7951 217.044 17.0523H207.57C207.635 18.0325 208.012 18.828 208.703 19.4387C209.394 20.0333 210.254 20.3305 211.282 20.3305C212.825 20.3305 213.974 19.7199 214.729 18.4986L216.754 19.9449C215.597 21.809 213.765 22.7411 211.258 22.7411ZM207.691 15.1239H214.392C214.247 14.2882 213.87 13.6374 213.259 13.1714C212.664 12.6893 211.965 12.4482 211.162 12.4482C210.326 12.4482 209.579 12.6812 208.92 13.1473C208.277 13.6133 207.868 14.2722 207.691 15.1239ZM224.113 22.6205C222.891 22.6205 221.895 22.2831 221.124 21.6081C220.368 20.9171 219.991 19.9208 219.991 18.6191V12.8098H217.484V10.4475H219.991V7.0969H222.642V10.4475H226.089V12.8098H222.642V18.1852C222.642 18.9244 222.803 19.4547 223.124 19.7761C223.446 20.0815 223.96 20.2341 224.667 20.2341C225.246 20.2341 225.72 20.1538 226.089 19.9931V22.3554C225.511 22.5321 224.852 22.6205 224.113 22.6205ZM233.144 22.5V5.38544H239.315C240.89 5.38544 242.143 5.84344 243.075 6.75943C244.024 7.65935 244.498 8.82442 244.498 10.2547C244.498 11.4599 244.16 12.4562 243.485 13.2437C242.826 14.015 241.87 14.5373 240.617 14.8105L246.98 22.5H243.509L237.242 14.9792H235.965V22.5H233.144ZM235.965 12.5205H238.978C239.813 12.5205 240.472 12.3277 240.954 11.942C241.436 11.5403 241.677 10.9778 241.677 10.2547C241.677 9.5315 241.436 8.97709 240.954 8.59141C240.472 8.18966 239.813 7.98878 238.978 7.98878H235.965V12.5205ZM252.645 22.7411C250.813 22.7411 249.302 22.1545 248.113 20.9814C246.94 19.8083 246.353 18.3057 246.353 16.4737C246.353 14.69 246.948 13.2035 248.137 12.0143C249.326 10.8091 250.829 10.2064 252.645 10.2064C254.316 10.2064 255.698 10.7368 256.791 11.7974C257.899 12.858 258.454 14.3204 258.454 16.1845C258.454 16.5059 258.446 16.7951 258.43 17.0523H248.957C249.021 18.0325 249.398 18.828 250.089 19.4387C250.78 20.0333 251.64 20.3305 252.669 20.3305C254.211 20.3305 255.36 19.7199 256.116 18.4986L258.141 19.9449C256.984 21.809 255.152 22.7411 252.645 22.7411ZM249.077 15.1239H255.778C255.634 14.2882 255.256 13.6374 254.645 13.1714C254.051 12.6893 253.352 12.4482 252.548 12.4482C251.713 12.4482 250.965 12.6812 250.306 13.1473C249.664 13.6133 249.254 14.2722 249.077 15.1239ZM265.952 22.7411C264.137 22.7411 262.618 22.1465 261.397 20.9573C260.191 19.752 259.589 18.2575 259.589 16.4737C259.589 14.69 260.191 13.2035 261.397 12.0143C262.618 10.8091 264.137 10.2064 265.952 10.2064C267.19 10.2064 268.299 10.5037 269.279 11.0983C270.275 11.6929 271.039 12.5045 271.569 13.5329L269.255 14.7864C268.95 14.1436 268.508 13.6294 267.929 13.2437C267.351 12.858 266.692 12.6652 265.952 12.6652C264.892 12.6652 264.016 13.0348 263.325 13.774C262.634 14.4971 262.288 15.3971 262.288 16.4737C262.288 17.5504 262.634 18.4584 263.325 19.1976C264.016 19.9208 264.892 20.2823 265.952 20.2823C266.692 20.2823 267.351 20.0895 267.929 19.7038C268.508 19.3181 268.95 18.8039 269.255 18.1611L271.569 19.4146C271.039 20.443 270.275 21.2546 269.279 21.8492C268.299 22.4438 267.19 22.7411 265.952 22.7411ZM283.2 20.9332C281.995 22.1384 280.5 22.7411 278.717 22.7411C276.933 22.7411 275.43 22.1384 274.209 20.9332C273.004 19.7119 272.401 18.2254 272.401 16.4737C272.401 14.7221 273.004 13.2437 274.209 12.0384C275.43 10.8171 276.933 10.2064 278.717 10.2064C280.5 10.2064 281.995 10.8171 283.2 12.0384C284.421 13.2437 285.032 14.7221 285.032 16.4737C285.032 18.2254 284.421 19.7119 283.2 20.9332ZM278.717 20.2823C279.761 20.2823 280.621 19.9208 281.296 19.1976C281.987 18.4584 282.332 17.5504 282.332 16.4737C282.332 15.3971 281.987 14.4971 281.296 13.774C280.621 13.0348 279.761 12.6652 278.717 12.6652C277.656 12.6652 276.78 13.0348 276.089 13.774C275.414 14.4971 275.077 15.3971 275.077 16.4737C275.077 17.5504 275.414 18.4584 276.089 19.1976C276.78 19.9208 277.656 20.2823 278.717 20.2823ZM290.43 22.5L284.982 10.4475H287.923L291.587 18.9084L295.275 10.4475H298.24L292.768 22.5H290.43ZM304.506 22.7411C302.674 22.7411 301.164 22.1545 299.974 20.9814C298.801 19.8083 298.215 18.3057 298.215 16.4737C298.215 14.69 298.809 13.2035 299.999 12.0143C301.188 10.8091 302.69 10.2064 304.506 10.2064C306.177 10.2064 307.559 10.7368 308.652 11.7974C309.761 12.858 310.315 14.3204 310.315 16.1845C310.315 16.5059 310.307 16.7951 310.291 17.0523H300.818C300.882 18.0325 301.26 18.828 301.951 19.4387C302.642 20.0333 303.502 20.3305 304.53 20.3305C306.073 20.3305 307.222 19.7199 307.977 18.4986L310.002 19.9449C308.845 21.809 307.013 22.7411 304.506 22.7411ZM300.939 15.1239H307.64C307.495 14.2882 307.118 13.6374 306.507 13.1714C305.912 12.6893 305.213 12.4482 304.41 12.4482C303.574 12.4482 302.827 12.6812 302.168 13.1473C301.525 13.6133 301.115 14.2722 300.939 15.1239ZM312.318 22.5V10.4475H314.97V12.5928C315.195 11.9179 315.604 11.3715 316.199 10.9537C316.81 10.5359 317.46 10.327 318.151 10.327C318.569 10.327 318.915 10.3591 319.188 10.4234V13.1473C318.802 13.0026 318.36 12.9303 317.862 12.9303C317.059 12.9303 316.376 13.2597 315.813 13.9186C315.251 14.5614 314.97 15.4613 314.97 16.6184V22.5H312.318ZM324.609 27.5379H321.692L324.271 21.8492L319.089 10.4475H322.005L325.694 18.9807L329.406 10.4475H332.347L324.609 27.5379Z" fill="white" fill-opacity="0.6"/>
<defs>
<linearGradient id="paint0_linear_8567_3356" x1="17.5153" y1="3.57726e-06" x2="17.5153" y2="28.0291" gradientUnits="userSpaceOnUse">
<stop stop-color="#1D273D"/>
<stop offset="1" stop-color="#0D0F13"/>
</linearGradient>
<linearGradient id="paint1_linear_8567_3356" x1="5.79399" y1="8.72604" x2="8.17139" y2="5.54468" gradientUnits="userSpaceOnUse">
<stop stop-color="#4462FE"/>
<stop offset="1" stop-color="#7D69FA"/>
</linearGradient>
<linearGradient id="paint2_linear_8567_3356" x1="5.56221" y1="8.7517" x2="8.50418" y2="8.60077" gradientUnits="userSpaceOnUse">
<stop stop-color="#3757FD"/>
<stop offset="1" stop-color="#6980FA"/>
</linearGradient>
<linearGradient id="paint3_linear_8567_3356" x1="5.56221" y1="8.7517" x2="8.50418" y2="8.60077" gradientUnits="userSpaceOnUse">
<stop stop-color="#2447FF"/>
<stop offset="1" stop-color="#6980FA"/>
</linearGradient>
<linearGradient id="paint4_linear_8567_3356" x1="5.74976" y1="22.1671" x2="8.08503" y2="19.6907" gradientUnits="userSpaceOnUse">
<stop stop-color="#BC3EE6"/>
<stop offset="1" stop-color="#D972F1"/>
</linearGradient>
<linearGradient id="paint5_linear_8567_3356" x1="26.9806" y1="15.1604" x2="29.1396" y2="12.8609" gradientUnits="userSpaceOnUse">
<stop stop-color="#29BDFF"/>
<stop offset="1" stop-color="#96E7FB"/>
</linearGradient>
<linearGradient id="paint6_linear_8567_3356" x1="26.5542" y1="15.726" x2="29.5961" y2="15.5799" gradientUnits="userSpaceOnUse">
<stop stop-color="#23BBFF"/>
<stop offset="1" stop-color="#85E7FF"/>
</linearGradient>
<linearGradient id="paint7_linear_8567_3356" x1="13.6671" y1="8.72604" x2="28.0806" y2="5.26491" gradientUnits="userSpaceOnUse">
<stop stop-color="#23BBFF"/>
<stop offset="1" stop-color="#85E7FF"/>
</linearGradient>
<linearGradient id="paint8_linear_8567_3356" x1="13.7998" y1="22.74" x2="27.6378" y2="19.1903" gradientUnits="userSpaceOnUse">
<stop stop-color="#2447FF"/>
<stop offset="1" stop-color="#6980FA"/>
</linearGradient>
<linearGradient id="paint9_linear_8567_3356" x1="7.60744" y1="15.7773" x2="20.826" y2="12.2278" gradientUnits="userSpaceOnUse">
<stop stop-color="#6634FF"/>
<stop offset="1" stop-color="#9C6DFF"/>
</linearGradient>
<clipPath id="clip0_8567_3356">
<rect width="151.273" height="28" fill="white"/>
</clipPath>
</defs>
</svg>
