<svg width="334" height="28" viewBox="0 0 334 28" fill="none" xmlns="http://www.w3.org/2000/svg">
<g clip-path="url(#clip0_9465_4954)">
<mask id="mask0_9465_4954" style="mask-type:luminance" maskUnits="userSpaceOnUse" x="0" y="0" width="36" height="28">
<path d="M35.0306 0H0V28H35.0306V0Z" fill="white"/>
</mask>
<g mask="url(#mask0_9465_4954)">
<path d="M0 5.95V22.05C0 25.3361 2.66624 28 5.95521 28H29.0754C32.3644 28 35.0306 25.3361 35.0306 22.05V5.95C35.0306 2.66391 32.3644 0 29.0754 0H5.95521C2.66624 0 0 2.66391 0 5.95Z" fill="#111111"/>
<path d="M0 5.95V22.05C0 25.3361 2.66624 28 5.95521 28H29.0754C32.3644 28 35.0306 25.3361 35.0306 22.05V5.95C35.0306 2.66391 32.3644 0 29.0754 0H5.95521C2.66624 0 0 2.66391 0 5.95Z" fill="url(#paint0_linear_9465_4954)"/>
<path d="M8.75697 7C8.75697 6.0335 7.97278 5.25 7.00544 5.25C6.0381 5.25 5.25391 6.0335 5.25391 7C5.25391 7.9665 6.0381 8.75 7.00544 8.75C7.97278 8.75 8.75697 7.9665 8.75697 7Z" fill="url(#paint1_linear_9465_4954)"/>
<path d="M8.75697 7C8.75697 6.0335 7.97278 5.25 7.00544 5.25C6.0381 5.25 5.25391 6.0335 5.25391 7C5.25391 7.9665 6.0381 8.75 7.00544 8.75C7.97278 8.75 8.75697 7.9665 8.75697 7Z" fill="url(#paint2_linear_9465_4954)"/>
<path d="M8.75697 7C8.75697 6.0335 7.97278 5.25 7.00544 5.25C6.0381 5.25 5.25391 6.0335 5.25391 7C5.25391 7.9665 6.0381 8.75 7.00544 8.75C7.97278 8.75 8.75697 7.9665 8.75697 7Z" fill="url(#paint3_linear_9465_4954)"/>
<path d="M8.75697 20.9882C8.75697 20.0218 7.97278 19.2383 7.00544 19.2383C6.0381 19.2383 5.25391 20.0218 5.25391 20.9882C5.25391 21.9548 6.0381 22.7383 7.00544 22.7383C7.97278 22.7383 8.75697 21.9548 8.75697 20.9882Z" fill="url(#paint4_linear_9465_4954)"/>
<path d="M29.7755 14C29.7755 13.0335 28.9913 12.25 28.024 12.25C27.0567 12.25 26.2725 13.0335 26.2725 14C26.2725 14.9664 27.0567 15.75 28.024 15.75C28.9913 15.75 29.7755 14.9664 29.7755 14Z" fill="url(#paint5_linear_9465_4954)"/>
<path d="M29.7755 14C29.7755 13.0335 28.9913 12.25 28.024 12.25C27.0567 12.25 26.2725 13.0335 26.2725 14C26.2725 14.9664 27.0567 15.75 28.024 15.75C28.9913 15.75 29.7755 14.9664 29.7755 14Z" fill="url(#paint6_linear_9465_4954)"/>
<path d="M28.0245 5.25H14.0123C13.0449 5.25 12.2607 6.0335 12.2607 7C12.2607 7.9665 13.0449 8.75 14.0123 8.75H28.0245C28.9918 8.75 29.7761 7.9665 29.7761 7C29.7761 6.0335 28.9918 5.25 28.0245 5.25Z" fill="url(#paint7_linear_9465_4954)"/>
<path d="M28.0245 19.2383H14.0123C13.0449 19.2383 12.2607 20.0218 12.2607 20.9882C12.2607 21.9548 13.0449 22.7383 14.0123 22.7383H28.0245C28.9918 22.7383 29.7761 21.9548 29.7761 20.9882C29.7761 20.0218 28.9918 19.2383 28.0245 19.2383Z" fill="url(#paint8_linear_9465_4954)"/>
<path d="M21.0177 12.25H7.00544C6.0381 12.25 5.25391 13.0335 5.25391 14C5.25391 14.9664 6.0381 15.75 7.00544 15.75H21.0177C21.985 15.75 22.7692 14.9664 22.7692 14C22.7692 13.0335 21.985 12.25 21.0177 12.25Z" fill="url(#paint9_linear_9465_4954)"/>
</g>
<path d="M49.6501 23.2806C53.0634 23.2806 55.4692 21.3403 55.4692 18.37C55.4933 15.8075 53.9474 14.3218 51.3688 13.3879L49.6009 12.7411C47.8089 12.0944 46.9491 11.5436 46.9491 10.2982C46.9491 9.05263 48.2257 8.33435 49.6994 8.33435C51.0745 8.33435 52.1302 8.88507 53.0142 9.91504L55.0031 8.0227C53.7264 6.51356 51.8852 5.69922 49.7245 5.69922C46.483 5.69922 44.0532 7.52001 44.0532 10.4903C44.0532 12.8138 45.4032 14.2983 48.1776 15.2813L50.0932 15.9516C51.7627 16.5504 52.5733 17.3167 52.5733 18.5387C52.5733 19.8076 51.3951 20.6466 49.7497 20.6466C48.0551 20.6466 46.6066 19.8322 45.6986 18.4672L43.4395 20.2154C44.4689 22.0586 46.8506 23.2806 49.6501 23.2806ZM63.288 23.2326C65.8667 23.2326 67.7811 22.1781 68.8861 20.4544L66.8239 19.0168C66.1609 20.0713 65.056 20.8376 63.3132 20.8376C61.251 20.8376 59.6548 19.5686 59.5323 17.5802H69.1815C69.2055 17.197 69.2055 16.9815 69.2055 16.7179C69.2055 12.8618 66.5296 10.7773 63.288 10.7773C59.5564 10.7773 56.8794 13.484 56.8794 17.005C56.8794 20.669 59.5553 23.2326 63.288 23.2326ZM59.6538 15.6634C60.0465 13.8907 61.5935 13.0048 63.1896 13.0048C64.7605 13.0048 66.1849 13.9386 66.4793 15.6634H59.6538ZM83.2362 27.9991V11.0165H80.5351V12.6216C79.848 11.6632 78.3744 10.7773 76.6065 10.7773C73.2424 10.7773 70.689 13.5801 70.689 17.005C70.689 20.4299 73.2424 23.2326 76.6065 23.2326C78.3744 23.2326 79.848 22.3467 80.5351 21.3883V27.9991H83.2362ZM77.0977 20.8365C74.937 20.8365 73.4394 19.1598 73.4394 17.0039C73.4394 14.848 74.937 13.1713 77.0977 13.1713C79.2584 13.1713 80.7561 14.848 80.7561 17.0039C80.7561 19.1598 79.2584 20.8365 77.0977 20.8365ZM90.2248 23.2326C91.7959 23.2326 93.0971 22.5858 93.8101 21.3638V22.9925H96.5108V11.0165H93.8101V16.9089C93.8101 19.496 92.5823 20.8376 90.8139 20.8376C89.2438 20.8376 88.3594 19.6636 88.3594 17.7478V11.0165H85.6583V18.1789C85.6583 21.2443 87.401 23.2326 90.2248 23.2326ZM104.958 23.2326C107.537 23.2326 109.451 22.1781 110.556 20.4544L108.494 19.0168C107.83 20.0713 106.725 20.8376 104.983 20.8376C102.921 20.8376 101.325 19.5686 101.202 17.5802H110.851C110.875 17.197 110.875 16.9815 110.875 16.7179C110.875 12.8618 108.199 10.7773 104.958 10.7773C101.226 10.7773 98.549 13.484 98.549 17.005C98.549 20.669 101.225 23.2326 104.958 23.2326ZM101.323 15.6634C101.716 13.8907 103.263 13.0048 104.859 13.0048C106.43 13.0048 107.854 13.9386 108.149 15.6634H101.323ZM112.914 22.9925H115.616V17.1C115.616 14.5129 116.99 13.1713 118.783 13.1713C120.354 13.1713 121.336 14.2973 121.336 16.213V22.9914H124.037V15.7818C124.037 12.7401 122.196 10.7752 119.347 10.7752C117.751 10.7752 116.376 11.422 115.616 12.6441V11.0165H112.914V22.9925ZM132.354 23.2326C134.907 23.2326 137.019 21.9391 138.074 19.9272L135.717 18.6817C135.127 19.9037 133.925 20.7895 132.353 20.7895C130.168 20.7895 128.621 19.1363 128.621 17.005C128.621 14.8736 130.168 13.2204 132.353 13.2204C133.924 13.2204 135.127 14.1063 135.717 15.3283L138.074 14.0827C137.019 12.0709 134.907 10.7773 132.354 10.7773C128.672 10.7773 125.872 13.4605 125.872 17.005C125.872 20.5494 128.672 23.2326 132.354 23.2326ZM145.356 23.2326C147.935 23.2326 149.849 22.1781 150.954 20.4544L148.892 19.0168C148.229 20.0713 147.124 20.8376 145.381 20.8376C143.318 20.8376 141.723 19.5686 141.6 17.5802H151.25C151.274 17.197 151.274 16.9815 151.274 16.7179C151.274 12.8618 148.598 10.7773 145.356 10.7773C141.623 10.7773 138.947 13.484 138.947 17.005C138.947 20.669 141.623 23.2326 145.356 23.2326ZM141.722 15.6634C142.114 13.8907 143.662 13.0048 145.257 13.0048C146.828 13.0048 148.253 13.9386 148.547 15.6634H141.722Z" fill="white"/>
</g>
<path d="M172.749 22.5L168.772 12.0384L164.794 22.5H162.191L157.78 5.38544H160.745L163.854 17.8236L168.772 5.09618L173.665 17.8236L176.798 5.38544H179.788L175.352 22.5H172.749ZM185.45 22.7411C183.811 22.7411 182.429 22.1304 181.304 20.9091C180.195 19.6877 179.641 18.2093 179.641 16.4737C179.641 14.7382 180.195 13.2597 181.304 12.0384C182.429 10.8171 183.811 10.2064 185.45 10.2064C186.27 10.2064 187.025 10.3912 187.716 10.7609C188.407 11.1144 188.938 11.5483 189.307 12.0625V10.4475H191.959V22.5H189.307V20.885C188.938 21.3992 188.407 21.8411 187.716 22.2107C187.025 22.5643 186.27 22.7411 185.45 22.7411ZM183.353 19.2217C184.028 19.9609 184.888 20.3305 185.932 20.3305C186.977 20.3305 187.837 19.9609 188.512 19.2217C189.187 18.4825 189.524 17.5665 189.524 16.4737C189.524 15.381 189.187 14.465 188.512 13.7258C187.837 12.9866 186.977 12.6169 185.932 12.6169C184.888 12.6169 184.028 12.9866 183.353 13.7258C182.678 14.465 182.341 15.381 182.341 16.4737C182.341 17.5665 182.678 18.4825 183.353 19.2217ZM194.828 22.5V4.42124H197.479V22.5H194.828ZM200.319 22.5V4.42124H202.971V22.5H200.319ZM211.258 22.7411C209.426 22.7411 207.916 22.1545 206.727 20.9814C205.553 19.8083 204.967 18.3057 204.967 16.4737C204.967 14.69 205.561 13.2035 206.751 12.0143C207.94 10.8091 209.442 10.2064 211.258 10.2064C212.93 10.2064 214.312 10.7368 215.404 11.7974C216.513 12.858 217.068 14.3204 217.068 16.1845C217.068 16.5059 217.06 16.7951 217.044 17.0523H207.57C207.635 18.0325 208.012 18.828 208.703 19.4387C209.394 20.0333 210.254 20.3305 211.282 20.3305C212.825 20.3305 213.974 19.7199 214.729 18.4986L216.754 19.9449C215.597 21.809 213.765 22.7411 211.258 22.7411ZM207.691 15.1239H214.392C214.247 14.2882 213.87 13.6374 213.259 13.1714C212.664 12.6893 211.965 12.4482 211.162 12.4482C210.326 12.4482 209.579 12.6812 208.92 13.1473C208.277 13.6133 207.868 14.2722 207.691 15.1239ZM224.113 22.6205C222.891 22.6205 221.895 22.2831 221.124 21.6081C220.368 20.9171 219.991 19.9208 219.991 18.6191V12.8098H217.484V10.4475H219.991V7.0969H222.642V10.4475H226.089V12.8098H222.642V18.1852C222.642 18.9244 222.803 19.4547 223.124 19.7761C223.446 20.0815 223.96 20.2341 224.667 20.2341C225.246 20.2341 225.72 20.1538 226.089 19.9931V22.3554C225.511 22.5321 224.852 22.6205 224.113 22.6205ZM233.144 22.5V5.38544H239.315C240.89 5.38544 242.143 5.84344 243.075 6.75943C244.024 7.65935 244.498 8.82442 244.498 10.2547C244.498 11.4599 244.16 12.4562 243.485 13.2437C242.826 14.015 241.87 14.5373 240.617 14.8105L246.98 22.5H243.509L237.242 14.9792H235.964V22.5H233.144ZM235.964 12.5205H238.978C239.813 12.5205 240.472 12.3277 240.954 11.942C241.436 11.5403 241.677 10.9778 241.677 10.2547C241.677 9.5315 241.436 8.97709 240.954 8.59141C240.472 8.18966 239.813 7.98878 238.978 7.98878H235.964V12.5205ZM252.645 22.7411C250.813 22.7411 249.302 22.1545 248.113 20.9814C246.94 19.8083 246.353 18.3057 246.353 16.4737C246.353 14.69 246.948 13.2035 248.137 12.0143C249.326 10.8091 250.829 10.2064 252.645 10.2064C254.316 10.2064 255.698 10.7368 256.791 11.7974C257.899 12.858 258.454 14.3204 258.454 16.1845C258.454 16.5059 258.446 16.7951 258.43 17.0523H248.956C249.021 18.0325 249.398 18.828 250.089 19.4387C250.78 20.0333 251.64 20.3305 252.669 20.3305C254.211 20.3305 255.36 19.7199 256.116 18.4986L258.14 19.9449C256.983 21.809 255.151 22.7411 252.645 22.7411ZM249.077 15.1239H255.778C255.634 14.2882 255.256 13.6374 254.645 13.1714C254.051 12.6893 253.352 12.4482 252.548 12.4482C251.712 12.4482 250.965 12.6812 250.306 13.1473C249.664 13.6133 249.254 14.2722 249.077 15.1239ZM265.952 22.7411C264.136 22.7411 262.618 22.1465 261.397 20.9573C260.191 19.752 259.589 18.2575 259.589 16.4737C259.589 14.69 260.191 13.2035 261.397 12.0143C262.618 10.8091 264.136 10.2064 265.952 10.2064C267.19 10.2064 268.299 10.5037 269.279 11.0983C270.275 11.6929 271.039 12.5045 271.569 13.5329L269.255 14.7864C268.949 14.1436 268.508 13.6294 267.929 13.2437C267.35 12.858 266.692 12.6652 265.952 12.6652C264.892 12.6652 264.016 13.0348 263.325 13.774C262.634 14.4971 262.288 15.3971 262.288 16.4737C262.288 17.5504 262.634 18.4584 263.325 19.1976C264.016 19.9208 264.892 20.2823 265.952 20.2823C266.692 20.2823 267.35 20.0895 267.929 19.7038C268.508 19.3181 268.949 18.8039 269.255 18.1611L271.569 19.4146C271.039 20.443 270.275 21.2546 269.279 21.8492C268.299 22.4438 267.19 22.7411 265.952 22.7411ZM283.2 20.9332C281.995 22.1384 280.5 22.7411 278.717 22.7411C276.933 22.7411 275.43 22.1384 274.209 20.9332C273.004 19.7119 272.401 18.2254 272.401 16.4737C272.401 14.7221 273.004 13.2437 274.209 12.0384C275.43 10.8171 276.933 10.2064 278.717 10.2064C280.5 10.2064 281.995 10.8171 283.2 12.0384C284.421 13.2437 285.032 14.7221 285.032 16.4737C285.032 18.2254 284.421 19.7119 283.2 20.9332ZM278.717 20.2823C279.761 20.2823 280.621 19.9208 281.296 19.1976C281.987 18.4584 282.332 17.5504 282.332 16.4737C282.332 15.3971 281.987 14.4971 281.296 13.774C280.621 13.0348 279.761 12.6652 278.717 12.6652C277.656 12.6652 276.78 13.0348 276.089 13.774C275.414 14.4971 275.077 15.3971 275.077 16.4737C275.077 17.5504 275.414 18.4584 276.089 19.1976C276.78 19.9208 277.656 20.2823 278.717 20.2823ZM290.43 22.5L284.982 10.4475H287.923L291.587 18.9084L295.275 10.4475H298.24L292.768 22.5H290.43ZM304.506 22.7411C302.674 22.7411 301.164 22.1545 299.974 20.9814C298.801 19.8083 298.215 18.3057 298.215 16.4737C298.215 14.69 298.809 13.2035 299.998 12.0143C301.188 10.8091 302.69 10.2064 304.506 10.2064C306.177 10.2064 307.559 10.7368 308.652 11.7974C309.761 12.858 310.315 14.3204 310.315 16.1845C310.315 16.5059 310.307 16.7951 310.291 17.0523H300.818C300.882 18.0325 301.26 18.828 301.951 19.4387C302.642 20.0333 303.502 20.3305 304.53 20.3305C306.073 20.3305 307.222 19.7199 307.977 18.4986L310.002 19.9449C308.845 21.809 307.013 22.7411 304.506 22.7411ZM300.939 15.1239H307.64C307.495 14.2882 307.117 13.6374 306.507 13.1714C305.912 12.6893 305.213 12.4482 304.41 12.4482C303.574 12.4482 302.827 12.6812 302.168 13.1473C301.525 13.6133 301.115 14.2722 300.939 15.1239ZM312.318 22.5V10.4475H314.97V12.5928C315.195 11.9179 315.604 11.3715 316.199 10.9537C316.81 10.5359 317.46 10.327 318.151 10.327C318.569 10.327 318.915 10.3591 319.188 10.4234V13.1473C318.802 13.0026 318.36 12.9303 317.862 12.9303C317.059 12.9303 316.376 13.2597 315.813 13.9186C315.251 14.5614 314.97 15.4613 314.97 16.6184V22.5H312.318ZM324.609 27.5379H321.692L324.271 21.8492L319.089 10.4475H322.005L325.693 18.9807L329.406 10.4475H332.346L324.609 27.5379Z" fill="white" fill-opacity="0.6"/>
<defs>
<linearGradient id="paint0_linear_9465_4954" x1="17.5153" y1="3.57726e-06" x2="17.5153" y2="28.0291" gradientUnits="userSpaceOnUse">
<stop stop-color="#1D273D"/>
<stop offset="1" stop-color="#0D0F13"/>
</linearGradient>
<linearGradient id="paint1_linear_9465_4954" x1="5.79353" y1="8.72604" x2="8.17093" y2="5.54468" gradientUnits="userSpaceOnUse">
<stop stop-color="#4462FE"/>
<stop offset="1" stop-color="#7D69FA"/>
</linearGradient>
<linearGradient id="paint2_linear_9465_4954" x1="5.56175" y1="8.7517" x2="8.50372" y2="8.60077" gradientUnits="userSpaceOnUse">
<stop stop-color="#3757FD"/>
<stop offset="1" stop-color="#6980FA"/>
</linearGradient>
<linearGradient id="paint3_linear_9465_4954" x1="5.56175" y1="8.7517" x2="8.50372" y2="8.60077" gradientUnits="userSpaceOnUse">
<stop stop-color="#2447FF"/>
<stop offset="1" stop-color="#6980FA"/>
</linearGradient>
<linearGradient id="paint4_linear_9465_4954" x1="5.7493" y1="22.1671" x2="8.08457" y2="19.6907" gradientUnits="userSpaceOnUse">
<stop stop-color="#BC3EE6"/>
<stop offset="1" stop-color="#D972F1"/>
</linearGradient>
<linearGradient id="paint5_linear_9465_4954" x1="26.9802" y1="15.1604" x2="29.1391" y2="12.8609" gradientUnits="userSpaceOnUse">
<stop stop-color="#29BDFF"/>
<stop offset="1" stop-color="#96E7FB"/>
</linearGradient>
<linearGradient id="paint6_linear_9465_4954" x1="26.5538" y1="15.726" x2="29.5956" y2="15.5799" gradientUnits="userSpaceOnUse">
<stop stop-color="#23BBFF"/>
<stop offset="1" stop-color="#85E7FF"/>
</linearGradient>
<linearGradient id="paint7_linear_9465_4954" x1="13.6673" y1="8.72604" x2="28.0808" y2="5.26491" gradientUnits="userSpaceOnUse">
<stop stop-color="#23BBFF"/>
<stop offset="1" stop-color="#85E7FF"/>
</linearGradient>
<linearGradient id="paint8_linear_9465_4954" x1="13.8" y1="22.74" x2="27.638" y2="19.1903" gradientUnits="userSpaceOnUse">
<stop stop-color="#2447FF"/>
<stop offset="1" stop-color="#6980FA"/>
</linearGradient>
<linearGradient id="paint9_linear_9465_4954" x1="7.60698" y1="15.7773" x2="20.8255" y2="12.2278" gradientUnits="userSpaceOnUse">
<stop stop-color="#6634FF"/>
<stop offset="1" stop-color="#9C6DFF"/>
</linearGradient>
<clipPath id="clip0_9465_4954">
<rect width="151.273" height="28" fill="white"/>
</clipPath>
</defs>
</svg>
