<svg width="18" height="18" viewBox="0 0 18 18" fill="none" xmlns="http://www.w3.org/2000/svg">
<g id="chain">
<path id="Union" fill-rule="evenodd" clip-rule="evenodd" d="M12.2383 3.6704L8.99999 1.80078L5.76172 3.6704V7.40963L8.99999 9.27924L12.2383 7.40963V3.6704ZM6.66172 4.37375V6.89001L8.54994 7.98018V5.33263L6.66172 4.37375ZM9.44994 5.31023V7.98023L11.3383 6.89001V4.3701L9.44994 5.31023Z" fill="white"/>
<path id="Union_2" fill-rule="evenodd" clip-rule="evenodd" d="M8.27659 10.2798L5.03832 8.41016L1.80005 10.2798V14.019L5.03832 15.8886L8.27659 14.019V10.2798ZM2.70005 10.9831V13.4994L4.58827 14.5896V11.942L2.70005 10.9831ZM5.48827 11.9196V14.5896L7.37659 13.4994V10.9795L5.48827 11.9196Z" fill="white"/>
<path id="Union_3" fill-rule="evenodd" clip-rule="evenodd" d="M16.3764 10.2798L13.1382 8.41016L9.8999 10.2798V14.019L13.1382 15.8886L16.3764 14.019V10.2798ZM10.7999 10.9831V13.4994L12.6881 14.5896V11.942L10.7999 10.9831ZM13.5881 11.9196V14.5896L15.4764 13.4994V10.9795L13.5881 11.9196Z" fill="white"/>
</g>
</svg>
