<svg width="20" height="20" viewBox="0 0 20 20" fill="none" xmlns="http://www.w3.org/2000/svg">
<g id="coins">
<g id="Vector">
<path d="M11.1921 7.78597C11.1921 8.14419 10.5971 8.69061 9.27961 9.03061C8.55711 9.23097 7.70711 9.33418 6.82068 9.33418C5.94032 9.33418 5.09032 9.23097 4.37389 9.03668C3.04425 8.69061 2.45532 8.15633 2.45532 7.78597C2.45532 7.15454 4.15532 6.23776 6.82068 6.23776C9.49211 6.23776 11.1921 7.15454 11.1921 7.78597Z" fill="white"/>
<path d="M9.62814 15.1728C8.78725 15.3938 7.81704 15.5109 6.82132 15.5109C5.82986 15.5109 4.86207 15.3944 4.02179 15.1734C3.16996 14.9481 2.49361 14.6263 2 14.2378V15.9815C2 17.0865 4.15961 17.9844 6.82193 17.9844C9.49032 17.9844 11.6499 17.0865 11.6499 15.9815V14.2378C11.1563 14.6263 10.48 14.9481 9.62814 15.1728Z" fill="white"/>
<path d="M9.50732 10.5956C8.72836 10.8112 7.79396 10.9277 6.82071 10.9277C5.85779 10.9277 4.92946 10.8136 4.13532 10.5987C3.15661 10.3437 2.43168 9.96298 2 9.50337V11.8512C2 12.567 2.89796 13.1887 4.25371 13.5463C4.99443 13.7412 5.87964 13.8542 6.82132 13.8542C7.76907 13.8542 8.65429 13.7412 9.39561 13.5463C10.752 13.1887 11.6493 12.5603 11.6493 11.8512V9.49002C11.214 9.95569 10.4818 10.3443 9.50732 10.5956Z" fill="white"/>
<path d="M15.8134 4.56107C17.0151 4.25095 17.5578 3.75254 17.5578 3.42581C17.5578 2.84988 16.0072 2.01367 13.5706 2.01367C11.1395 2.01367 9.58887 2.84988 9.58887 3.42581C9.58887 3.76362 10.126 4.25095 11.3388 4.5666C11.9923 4.74381 12.7676 4.83796 13.5706 4.83796C14.3791 4.83796 15.1544 4.74381 15.8134 4.56107Z" fill="white"/>
<path d="M13.5711 14.1821C14.4793 14.1821 15.3643 14.0752 16.1313 13.8737C16.9082 13.6688 17.5251 13.3753 17.9754 13.0208V14.6113C17.9754 15.6192 16.0056 16.4382 13.5717 16.4382C13.4159 16.4382 13.2619 16.4349 13.1103 16.4283C13.153 16.2336 13.1755 16.0314 13.1755 15.824V14.1753C13.3067 14.1798 13.4387 14.1821 13.5711 14.1821Z" fill="white"/>
<path d="M13.1755 12.7206C13.306 12.7255 13.4382 12.7279 13.5717 12.7279C16.0056 12.7279 17.9754 11.9089 17.9754 10.901V9.31055C17.5251 9.66497 16.9082 9.95848 16.1313 10.1634C15.3643 10.365 14.4793 10.4718 13.5711 10.4718C13.4387 10.4718 13.3067 10.4696 13.1755 10.465V12.7206Z" fill="white"/>
<path d="M13.1755 8.95334C13.3059 8.95819 13.4379 8.96067 13.5711 8.96067C14.4356 8.96067 15.243 8.85767 15.9192 8.6799C17.1563 8.35372 17.9748 7.78056 17.9748 7.13375V4.98009C17.5778 5.40484 16.9099 5.75926 16.0211 5.98853C15.3106 6.18512 14.4583 6.29144 13.5706 6.29144C13.3313 6.29144 13.0943 6.28371 12.8615 6.2685C13.0621 6.65495 13.1755 7.09399 13.1755 7.55951V8.95334Z" fill="white"/>
</g>
</g>
</svg>
