<svg width="20" height="21" viewBox="0 0 20 21" fill="none" xmlns="http://www.w3.org/2000/svg">
<g id="Contracts">
<g id="Subtract">
<path d="M7 17.5L7 9.89599C6.55852 9.7031 6.25 9.26258 6.25 8.75C6.25 8.05964 6.80964 7.5 7.5 7.5C8.19036 7.5 8.75 8.05964 8.75 8.75C8.75 9.26258 8.44148 9.7031 8 9.89599L8 14.9244L10.7331 13.8995V12.8884C10.3007 12.6918 10 12.256 10 11.75C10 11.0596 10.5596 10.5 11.25 10.5C11.9404 10.5 12.5 11.0596 12.5 11.75C12.5 12.2691 12.1836 12.7143 11.7331 12.9032V14.5925L8 15.9924L8 17.5L16 17.5V8.64587L10.4552 8.64587V3.5H4V17.5L7 17.5Z" fill="white"/>
<path d="M15.931 7.65688L11.5103 3.56422L11.5661 7.65688L15.931 7.65688Z" fill="white"/>
</g>
</g>
</svg>
