<svg width="20" height="20" viewBox="0 0 20 20" fill="none" xmlns="http://www.w3.org/2000/svg">
<g id="Hidden">
<g id="Subtract">
<path d="M11.4251 5.18872C10.9594 5.12805 10.4836 5.0968 10.0002 5.0968C6.43649 5.0968 3.28436 6.79968 1.5556 9.39307L1.27832 9.80908L1.5556 10.2251C2.69638 11.9364 4.45694 13.26 6.5466 13.9623L7.28995 12.6255C5.56299 12.1036 4.1008 11.0988 3.10287 9.80908C4.59052 7.8866 7.10989 6.5968 10.0002 6.5968C10.2125 6.5968 10.4228 6.60376 10.6308 6.61743L11.4251 5.18872Z" fill="white"/>
<path d="M10.1789 7.43005C10.1199 7.42566 10.0603 7.42346 10.0002 7.42346C8.68271 7.42346 7.61469 8.49146 7.61469 9.80896C7.61469 10.3352 7.78506 10.8217 8.07364 11.2161L10.1789 7.43005Z" fill="white"/>
<path fill-rule="evenodd" clip-rule="evenodd" d="M5.97879 17.0411L6.85275 17.5271L8.57526 14.4294C9.04099 14.49 9.51682 14.5214 10.0002 14.5214C13.5639 14.5214 16.7161 12.8185 18.4448 10.2251L18.7221 9.80908L18.4448 9.39307C17.304 7.68176 15.5435 6.35815 13.4538 5.65576L14.9536 2.95862L14.0796 2.47266L5.97879 17.0411ZM12.7104 6.99268L11.9268 8.40198C12.2154 8.79639 12.3858 9.28284 12.3858 9.80896C12.3858 11.1266 11.3177 12.1946 10.0002 12.1946C9.94012 12.1946 9.88055 12.1924 9.82159 12.188L9.36966 13.0007C9.57767 13.0144 9.78793 13.0214 10.0002 13.0214C12.8905 13.0214 15.4099 11.7316 16.8976 9.80908C15.8996 8.51941 14.4374 7.51453 12.7104 6.99268Z" fill="white"/>
</g>
</g>
</svg>
