<svg width="20" height="20" viewBox="0 0 20 20" fill="none" xmlns="http://www.w3.org/2000/svg">
<g id="Link-Connection">
<g id="Vector">
<path fill-rule="evenodd" clip-rule="evenodd" d="M5.65098 5.00098L5.65098 12.5868C5.65098 12.8986 6.02798 13.0547 6.24846 12.8343L12.8342 6.24846C13.8737 5.20902 15.651 5.9452 15.651 7.41519V15.001H14.351V7.41519C14.351 7.10337 13.974 6.94722 13.7535 7.1677L7.1677 13.7535C6.12826 14.7929 4.35098 14.0568 4.35098 12.5868L4.35098 5.00098H5.65098Z" fill="white"/>
<path d="M5.00065 2.03125C3.3607 2.03125 2.03125 3.3607 2.03125 5.00065C2.03125 6.64061 3.3607 7.97005 5.00065 7.97005C6.64061 7.97005 7.97005 6.64061 7.97005 5.00065C7.97005 3.3607 6.64061 2.03125 5.00065 2.03125Z" fill="white"/>
<path d="M14.9997 12.0312C13.3597 12.0312 12.0303 13.3607 12.0303 15.0007C12.0303 16.6406 13.3597 17.9701 14.9997 17.9701C16.6396 17.9701 17.9691 16.6406 17.9691 15.0007C17.9691 13.3607 16.6396 12.0312 14.9997 12.0312Z" fill="white"/>
</g>
</g>
</svg>
