<svg width="20" height="20" viewBox="0 0 20 20" fill="none" xmlns="http://www.w3.org/2000/svg">
<g id="Send (Default)">
<path id="Subtract" d="M14.952 2.86937L3.33984 10.6285C3.00008 10.8569 2.89796 11.3362 3.11176 11.6991C3.2446 11.9246 3.46815 12.0521 3.6999 12.0616L3.70388 12.0651L3.708 12.0686H6.28605C6.78202 12.0686 7.26064 11.8739 7.63066 11.5216C8.1492 11.0279 10.4926 9.12312 11.7011 8.14595C12.0915 7.83027 12.8551 7.99125 12.625 8.4375L11.2433 10.9344C10.7104 11.8479 10.8913 13.0409 11.667 13.7286L14.4613 16.206L14.718 16.4303L14.928 16.6297L14.998 16.6795L15.0641 16.7149C15.0822 16.7245 15.1011 16.7323 15.1206 16.738C15.1476 16.746 15.1755 16.75 15.2035 16.75H15.3981C15.7996 16.75 16.125 16.4024 16.125 15.9736L16.125 3.53132C16.125 3.11184 15.8136 2.77006 15.4242 2.75541C15.2649 2.73526 15.0984 2.77102 14.952 2.86937Z" fill="white"/>
</g>
</svg>
