<svg width="20" height="21" viewBox="0 0 20 21" fill="none" xmlns="http://www.w3.org/2000/svg">
<g id="Wallet">
<path id="Exclude" fill-rule="evenodd" clip-rule="evenodd" d="M5 6.54947C5 6.99261 5.38931 7.35185 5.86954 7.35185H16C16.5523 7.35185 17 7.79957 17 8.35185V15.5C17 16.0523 16.5523 16.5 16 16.5H5.49505C4.11707 16.5 3 15.4692 3 14.1977V6.80233C3 5.53079 4.11707 4.5 5.49505 4.5H13.8765C14.2208 4.5 14.5 4.77917 14.5 5.12355C14.5 5.46792 14.2208 5.74709 13.8765 5.74709H5.86955C5.38931 5.74709 5 6.10633 5 6.54947ZM12 12C12 11.1716 12.6716 10.5 13.5 10.5C14.3284 10.5 15 11.1716 15 12C15 12.8284 14.3284 13.5 13.5 13.5C12.6716 13.5 12 12.8284 12 12Z" fill="white"/>
</g>
</svg>
